<svg width="64" height="64" viewBox="0 0 64 64" fill="none" xmlns="http://www.w3.org/2000/svg">
  <!-- Background circle with gradient -->
  <defs>
    <radialGradient id="bgGradient" cx="50%" cy="30%" r="70%">
      <stop offset="0%" style="stop-color:#0c1445;stop-opacity:1" />
      <stop offset="25%" style="stop-color:#16213e;stop-opacity:1" />
      <stop offset="50%" style="stop-color:#1a1a2e;stop-opacity:1" />
      <stop offset="100%" style="stop-color:#0c0c0c;stop-opacity:1" />
    </radialGradient>
    
    <!-- Bubble gradient -->
    <radialGradient id="bubbleGradient" cx="30%" cy="30%" r="70%">
      <stop offset="0%" style="stop-color:#ffffff;stop-opacity:0.9" />
      <stop offset="20%" style="stop-color:#00ff88;stop-opacity:0.8" />
      <stop offset="50%" style="stop-color:#00d4ff;stop-opacity:0.6" />
      <stop offset="80%" style="stop-color:#ff6b6b;stop-opacity:0.4" />
      <stop offset="100%" style="stop-color:#ffd700;stop-opacity:0.2" />
    </radialGradient>
    
    <!-- Pop effect gradient -->
    <radialGradient id="popGradient" cx="50%" cy="50%" r="50%">
      <stop offset="0%" style="stop-color:#ffffff;stop-opacity:0.8" />
      <stop offset="50%" style="stop-color:#00ff88;stop-opacity:0.4" />
      <stop offset="100%" style="stop-color:#00d4ff;stop-opacity:0.1" />
    </radialGradient>
  </defs>
  
  <!-- Background -->
  <circle cx="32" cy="32" r="32" fill="url(#bgGradient)"/>
  
  <!-- Main bubble -->
  <circle cx="32" cy="28" r="18" fill="url(#bubbleGradient)" stroke="#00ff88" stroke-width="1" opacity="0.9"/>
  
  <!-- Bubble highlight -->
  <ellipse cx="28" cy="22" rx="6" ry="8" fill="#ffffff" opacity="0.6"/>
  
  <!-- Pop effect particles -->
  <circle cx="20" cy="15" r="3" fill="url(#popGradient)" opacity="0.8"/>
  <circle cx="44" cy="18" r="2" fill="url(#popGradient)" opacity="0.6"/>
  <circle cx="16" cy="35" r="2.5" fill="url(#popGradient)" opacity="0.7"/>
  <circle cx="48" cy="32" r="2" fill="url(#popGradient)" opacity="0.5"/>
  <circle cx="25" cy="45" r="1.5" fill="url(#popGradient)" opacity="0.6"/>
  <circle cx="40" cy="42" r="1.8" fill="url(#popGradient)" opacity="0.7"/>
  
  <!-- Sparkle effects -->
  <path d="M15 12 L17 14 L15 16 L13 14 Z" fill="#ffffff" opacity="0.8"/>
  <path d="M47 25 L49 27 L47 29 L45 27 Z" fill="#ffffff" opacity="0.6"/>
  <path d="M12 40 L14 42 L12 44 L10 42 Z" fill="#ffffff" opacity="0.7"/>
  <path d="M50 45 L52 47 L50 49 L48 47 Z" fill="#ffffff" opacity="0.5"/>
  
  <!-- Pop lines -->
  <line x1="14" y1="20" x2="18" y2="16" stroke="#00ff88" stroke-width="1.5" opacity="0.6"/>
  <line x1="46" y1="22" x2="50" y2="18" stroke="#00d4ff" stroke-width="1.5" opacity="0.6"/>
  <line x1="18" y1="38" x2="22" y2="34" stroke="#ff6b6b" stroke-width="1.5" opacity="0.6"/>
  <line x1="42" y1="40" x2="46" y2="36" stroke="#ffd700" stroke-width="1.5" opacity="0.6"/>
</svg>